<svg xmlns="http://www.w3.org/2000/svg" width="180" height="180" viewBox="0 0 180 180" role="img" aria-label="QR code placeholder">
  <rect width="180" height="180" fill="#ffffff"/>
  <rect x="8" y="8" width="164" height="164" fill="none" stroke="#222" stroke-width="2"/>
  <g fill="#111">
    <rect x="20" y="20" width="44" height="44"/>
    <rect x="28" y="28" width="28" height="28" fill="#fff"/>
    <rect x="36" y="36" width="12" height="12"/>
    <rect x="116" y="20" width="44" height="44"/>
    <rect x="124" y="28" width="28" height="28" fill="#fff"/>
    <rect x="132" y="36" width="12" height="12"/>
    <rect x="20" y="116" width="44" height="44"/>
    <rect x="28" y="124" width="28" height="28" fill="#fff"/>
    <rect x="36" y="132" width="12" height="12"/>
    <rect x="76" y="20" width="8" height="8"/>
    <rect x="92" y="20" width="8" height="8"/>
    <rect x="76" y="36" width="8" height="8"/>
    <rect x="84" y="44" width="8" height="8"/>
    <rect x="100" y="52" width="8" height="8"/>
    <rect x="76" y="60" width="8" height="8"/>
    <rect x="92" y="68" width="8" height="8"/>
    <rect x="76" y="76" width="8" height="8"/>
    <rect x="84" y="84" width="8" height="8"/>
    <rect x="100" y="92" width="8" height="8"/>
    <rect x="76" y="100" width="8" height="8"/>
    <rect x="92" y="108" width="8" height="8"/>
    <rect x="76" y="116" width="8" height="8"/>
    <rect x="84" y="124" width="8" height="8"/>
    <rect x="100" y="132" width="8" height="8"/>
    <rect x="116" y="76" width="8" height="8"/>
    <rect x="132" y="84" width="8" height="8"/>
    <rect x="148" y="92" width="8" height="8"/>
    <rect x="124" y="100" width="8" height="8"/>
    <rect x="140" y="108" width="8" height="8"/>
    <rect x="116" y="116" width="8" height="8"/>
    <rect x="132" y="124" width="8" height="8"/>
    <rect x="148" y="132" width="8" height="8"/>
    <rect x="20" y="76" width="8" height="8"/>
    <rect x="36" y="84" width="8" height="8"/>
    <rect x="52" y="92" width="8" height="8"/>
    <rect x="28" y="100" width="8" height="8"/>
    <rect x="44" y="108" width="8" height="8"/>
    <rect x="60" y="116" width="8" height="8"/>
    <rect x="36" y="124" width="8" height="8"/>
    <rect x="52" y="132" width="8" height="8"/>
    <rect x="68" y="140" width="8" height="8"/>
    <rect x="84" y="148" width="8" height="8"/>
    <rect x="100" y="148" width="8" height="8"/>
    <rect x="116" y="148" width="8" height="8"/>
    <rect x="132" y="148" width="8" height="8"/>
    <rect x="148" y="148" width="8" height="8"/>
  </g>
</svg>
